<svg width="32" height="32" viewBox="0 0 32 32" fill="none" xmlns="http://www.w3.org/2000/svg">
<path d="M29.9001 12.1612C29.7789 11.788 29.5507 11.4586 29.2437 11.2141C28.9368 10.9696 28.5647 10.8208 28.1738 10.7862L20.7501 10.1462L17.8401 3.22624C17.6885 2.86314 17.433 2.55298 17.1056 2.33482C16.7781 2.11665 16.3935 2.00024 16.0001 2.00024C15.6066 2.00024 15.222 2.11665 14.8945 2.33482C14.5671 2.55298 14.3116 2.86314 14.1601 3.22624L11.2588 10.1462L3.8263 10.79C3.43385 10.823 3.05986 10.9711 2.75125 11.2158C2.44264 11.4604 2.21313 11.7908 2.09152 12.1654C1.9699 12.54 1.96159 12.9421 2.06762 13.3214C2.17365 13.7007 2.38931 14.0403 2.68755 14.2975L8.3263 19.225L6.6363 26.5425C6.54694 26.9254 6.57244 27.3262 6.70961 27.6947C6.84679 28.0632 7.08955 28.3831 7.40755 28.6144C7.72554 28.8457 8.10467 28.9782 8.49752 28.9951C8.89037 29.0121 9.27952 28.913 9.6163 28.71L15.9913 24.835L22.3801 28.71C22.7168 28.913 23.106 29.0121 23.4988 28.9951C23.8917 28.9782 24.2708 28.8457 24.5888 28.6144C24.9068 28.3831 25.1496 28.0632 25.2867 27.6947C25.4239 27.3262 25.4494 26.9254 25.3601 26.5425L23.6713 19.2175L29.3088 14.2975C29.607 14.0394 29.8222 13.6989 29.9274 13.3188C30.0326 12.9387 30.0231 12.5359 29.9001 12.1612ZM27.9976 12.7862L22.3601 17.7062C22.0857 17.9449 21.8816 18.2539 21.7697 18.5999C21.6578 18.9459 21.6424 19.3159 21.7251 19.67L23.4188 27L17.0351 23.125C16.7236 22.9353 16.366 22.835 16.0013 22.835C15.6366 22.835 15.279 22.9353 14.9676 23.125L8.59255 27L10.2751 19.675C10.3577 19.3209 10.3423 18.9509 10.2304 18.6049C10.1185 18.2589 9.91443 17.9499 9.64005 17.7112L4.00005 12.7937C3.99959 12.79 3.99959 12.7862 4.00005 12.7825L11.4301 12.14C11.7928 12.108 12.1399 11.9776 12.434 11.7628C12.7281 11.5481 12.958 11.2571 13.0988 10.9212L16.0001 4.00999L18.9001 10.9212C19.0409 11.2571 19.2708 11.5481 19.5648 11.7628C19.8589 11.9776 20.206 12.108 20.5688 12.14L28.0001 12.7825C28.0001 12.7825 28.0001 12.79 28.0001 12.7912L27.9976 12.7862Z" fill="black"/>
</svg>
